<svg width="1025" height="1025" viewBox="0 0 1025 1025" fill="none" xmlns="http://www.w3.org/2000/svg">
<g clip-path="url(#clip0_3_12)">
<g opacity="0.5">
<g clip-path="url(#clip1_3_12)">
<line x1="0.985992" y1="340.486" x2="1024.99" y2="340.486" stroke="#007AFF"/>
<line x1="0.985992" y1="512.486" x2="1024.99" y2="512.486" stroke="#007AFF"/>
<line x1="0.985992" y1="684.486" x2="1024.99" y2="684.486" stroke="#007AFF"/>
<line x1="341.486" y1="0.985992" x2="341.486" y2="1024.99" stroke="#007AFF"/>
<line x1="513.486" y1="0.985992" x2="513.486" y2="1024.99" stroke="#007AFF"/>
<line x1="685.486" y1="0.985992" x2="685.486" y2="1024.99" stroke="#007AFF"/>
<circle cx="512.986" cy="512.986" r="419.5" stroke="#007AFF"/>
<circle cx="512.986" cy="512.986" r="211.5" stroke="#007AFF"/>
<rect x="133.486" y="133.486" width="759" height="759" rx="73.5" stroke="#007AFF"/>
<rect x="93.486" y="173.486" width="839" height="679" rx="73.5" stroke="#007AFF"/>
<rect x="173.486" y="93.486" width="679" height="839" rx="73.5" stroke="#007AFF"/>
<line x1="1.33955" y1="0.632439" x2="1025.34" y2="1024.63" stroke="#007AFF"/>
<line x1="0.632439" y1="1024.63" x2="1024.63" y2="0.632357" stroke="#007AFF"/>
</g>
<rect x="1.48599" y="1.48599" width="1023" height="1023" stroke="#007AFF"/>
</g>
<rect width="1024" height="1024" transform="translate(1 1)" fill="white"/>
<path d="M592.581 435.238C571.39 414.058 546.233 397.256 518.547 385.794C490.86 374.331 461.186 368.432 431.217 368.432C401.249 368.432 371.575 374.331 343.888 385.794C316.202 397.256 291.045 414.058 269.854 435.238L431.217 596.52L592.581 435.238Z" fill="#EAF887"/>
<path d="M431.42 596.753C452.61 617.933 477.767 634.734 505.454 646.196C533.14 657.659 562.815 663.558 592.783 663.558C622.75 663.558 652.428 657.659 680.114 646.196C707.8 634.734 732.959 617.933 754.148 596.753L592.783 435.47L431.42 596.753Z" fill="#377AAF"/>
<path d="M431.021 596.717C409.831 617.897 384.673 634.698 356.987 646.161C329.3 657.623 299.626 663.523 269.658 663.523C239.689 663.523 210.016 657.623 182.328 646.161C154.642 634.698 129.485 617.897 108.294 596.717L269.658 435.434L431.021 596.717Z" fill="#79DC96"/>
<path d="M592.979 435.273C614.168 414.093 639.327 397.293 667.013 385.83C694.698 374.368 724.377 368.468 754.341 368.468C784.313 368.468 813.984 374.368 841.67 385.83C869.355 397.293 894.515 414.093 915.704 435.273L754.341 596.557L592.979 435.273Z" fill="#3BBBB3"/>
</g>
<defs>
<clipPath id="clip0_3_12">
<rect width="1024" height="1024" fill="white" transform="translate(0.985992 0.985992)"/>
</clipPath>
<clipPath id="clip1_3_12">
<rect x="0.985992" y="0.985992" width="1024" height="1024" fill="white"/>
</clipPath>
</defs>
</svg>
